<mxfile host="65bd71144e">
    <diagram id="kcAEEVUBWmMw3Z1aqWV_" name="第 1 页">
        <mxGraphModel dx="1795" dy="558" grid="1" gridSize="10" guides="1" tooltips="1" connect="1" arrows="1" fold="1" page="1" pageScale="1" pageWidth="827" pageHeight="1169" math="0" shadow="0">
            <root>
                <mxCell id="0"/>
                <mxCell id="1" parent="0"/>
                <mxCell id="4" style="edgeStyle=none;html=1;exitX=1;exitY=0.5;exitDx=0;exitDy=0;entryX=0;entryY=0.5;entryDx=0;entryDy=0;sketch=1;" edge="1" parent="1" source="2" target="3">
                    <mxGeometry relative="1" as="geometry"/>
                </mxCell>
                <mxCell id="25" style="edgeStyle=none;sketch=1;html=1;exitX=1;exitY=0.5;exitDx=0;exitDy=0;entryX=0;entryY=0.5;entryDx=0;entryDy=0;" edge="1" parent="1" source="2" target="31">
                    <mxGeometry relative="1" as="geometry">
                        <mxPoint x="160" y="441.345" as="targetPoint"/>
                    </mxGeometry>
                </mxCell>
                <mxCell id="2" value="非对称加密" style="rounded=0;whiteSpace=wrap;html=1;fillColor=#ffe6cc;strokeColor=#d79b00;comic=1;" parent="1" vertex="1">
                    <mxGeometry x="40" y="160" width="80" height="30" as="geometry"/>
                </mxCell>
                <mxCell id="7" style="edgeStyle=none;sketch=1;html=1;exitX=1;exitY=0.5;exitDx=0;exitDy=0;entryX=0;entryY=0.5;entryDx=0;entryDy=0;" edge="1" parent="1" source="3" target="5">
                    <mxGeometry relative="1" as="geometry"/>
                </mxCell>
                <mxCell id="8" style="edgeStyle=none;sketch=1;html=1;exitX=1;exitY=0.5;exitDx=0;exitDy=0;entryX=0;entryY=0.5;entryDx=0;entryDy=0;" edge="1" parent="1" source="3" target="6">
                    <mxGeometry relative="1" as="geometry"/>
                </mxCell>
                <mxCell id="10" style="edgeStyle=none;sketch=1;html=1;exitX=1;exitY=0.5;exitDx=0;exitDy=0;entryX=0;entryY=0.5;entryDx=0;entryDy=0;" edge="1" parent="1" source="3" target="9">
                    <mxGeometry relative="1" as="geometry"/>
                </mxCell>
                <mxCell id="3" value="两个密钥" style="rounded=0;whiteSpace=wrap;html=1;fillColor=#b0e3e6;strokeColor=#0e8088;comic=1;" vertex="1" parent="1">
                    <mxGeometry x="150" y="58" width="80" height="30" as="geometry"/>
                </mxCell>
                <mxCell id="5" value="公钥，可以公开给所有人的" style="rounded=0;whiteSpace=wrap;html=1;fillColor=#ffe6cc;strokeColor=#d79b00;comic=1;sketch=1;" vertex="1" parent="1">
                    <mxGeometry x="270" y="20" width="160" height="26" as="geometry"/>
                </mxCell>
                <mxCell id="6" value="私钥，这个必须由本人管理，&lt;b&gt;不可泄露&lt;/b&gt;" style="rounded=0;whiteSpace=wrap;html=1;fillColor=#ffe6cc;strokeColor=#d79b00;comic=1;sketch=1;" vertex="1" parent="1">
                    <mxGeometry x="270" y="60" width="230" height="26" as="geometry"/>
                </mxCell>
                <mxCell id="12" style="edgeStyle=orthogonalEdgeStyle;sketch=1;html=1;exitX=0.25;exitY=1;exitDx=0;exitDy=0;entryX=0;entryY=0.5;entryDx=0;entryDy=0;" edge="1" parent="1" source="9" target="11">
                    <mxGeometry relative="1" as="geometry"/>
                </mxCell>
                <mxCell id="19" style="edgeStyle=orthogonalEdgeStyle;sketch=1;html=1;exitX=0.25;exitY=1;exitDx=0;exitDy=0;entryX=0;entryY=0.5;entryDx=0;entryDy=0;" edge="1" parent="1" source="9" target="18">
                    <mxGeometry relative="1" as="geometry"/>
                </mxCell>
                <mxCell id="9" value="这两个密钥可以&lt;b&gt;双向加解密&lt;/b&gt;：&lt;br&gt;① 公钥加密 私钥解密&lt;br&gt;② 私钥加密 公钥解密" style="rounded=0;whiteSpace=wrap;html=1;fillColor=#e1d5e7;strokeColor=#9673a6;comic=1;sketch=0;align=left;" vertex="1" parent="1">
                    <mxGeometry x="270" y="100" width="160" height="50" as="geometry"/>
                </mxCell>
                <mxCell id="17" value="目的" style="edgeStyle=orthogonalEdgeStyle;sketch=1;html=1;exitX=1;exitY=0.5;exitDx=0;exitDy=0;entryX=0;entryY=0.5;entryDx=0;entryDy=0;" edge="1" parent="1" source="11" target="13">
                    <mxGeometry y="15" relative="1" as="geometry">
                        <mxPoint as="offset"/>
                    </mxGeometry>
                </mxCell>
                <mxCell id="11" value="公钥加密 私钥解密" style="rounded=0;whiteSpace=wrap;html=1;fillColor=#dae8fc;strokeColor=#6c8ebf;comic=1;sketch=0;align=center;" vertex="1" parent="1">
                    <mxGeometry x="330" y="170" width="120" height="30" as="geometry"/>
                </mxCell>
                <mxCell id="16" style="sketch=1;html=1;exitX=1;exitY=0.5;exitDx=0;exitDy=0;entryX=0;entryY=0.5;entryDx=0;entryDy=0;" edge="1" parent="1" source="13" target="14">
                    <mxGeometry relative="1" as="geometry"/>
                </mxCell>
                <mxCell id="13" value="保证内容传输的&lt;b&gt;安全&lt;/b&gt;" style="rounded=0;whiteSpace=wrap;html=1;fillColor=#ffe6cc;strokeColor=#d79b00;comic=1;sketch=1;align=center;" vertex="1" parent="1">
                    <mxGeometry x="490" y="170" width="120" height="30" as="geometry"/>
                </mxCell>
                <mxCell id="14" value="因为被公钥加密的内容，其他人是无法解密的，只有持有私钥的人，才能解密出实际的内容" style="rounded=0;whiteSpace=wrap;html=1;fillColor=#dae8fc;strokeColor=#6c8ebf;comic=1;sketch=1;align=center;" vertex="1" parent="1">
                    <mxGeometry x="640" y="130" width="140" height="70" as="geometry"/>
                </mxCell>
                <mxCell id="21" value="目的" style="edgeStyle=orthogonalEdgeStyle;sketch=1;html=1;exitX=1;exitY=0.5;exitDx=0;exitDy=0;entryX=0;entryY=0.5;entryDx=0;entryDy=0;" edge="1" parent="1" source="18" target="20">
                    <mxGeometry y="15" relative="1" as="geometry">
                        <mxPoint as="offset"/>
                    </mxGeometry>
                </mxCell>
                <mxCell id="18" value="私钥加密 公钥解密" style="rounded=0;whiteSpace=wrap;html=1;fillColor=#dae8fc;strokeColor=#6c8ebf;comic=1;sketch=0;align=center;" vertex="1" parent="1">
                    <mxGeometry x="330" y="220" width="120" height="30" as="geometry"/>
                </mxCell>
                <mxCell id="23" style="edgeStyle=none;sketch=1;html=1;exitX=1;exitY=0.5;exitDx=0;exitDy=0;entryX=0;entryY=0.5;entryDx=0;entryDy=0;" edge="1" parent="1" source="20" target="22">
                    <mxGeometry relative="1" as="geometry"/>
                </mxCell>
                <mxCell id="20" value="保证消息&lt;b&gt;不会被冒充&lt;/b&gt;" style="rounded=0;whiteSpace=wrap;html=1;fillColor=#ffe6cc;strokeColor=#d79b00;comic=1;sketch=1;align=center;" vertex="1" parent="1">
                    <mxGeometry x="490" y="220" width="120" height="30" as="geometry"/>
                </mxCell>
                <mxCell id="22" value="因为私钥是不可泄露的，如果公钥能正常解密出私钥加密的内容，就能&lt;b&gt;证明&lt;/b&gt;这个&lt;b&gt;消息是来源于持有私钥身份的人发送的&lt;/b&gt;" style="rounded=0;whiteSpace=wrap;html=1;fillColor=#dae8fc;strokeColor=#6c8ebf;comic=1;sketch=1;align=center;" vertex="1" parent="1">
                    <mxGeometry x="640" y="210" width="160" height="70" as="geometry"/>
                </mxCell>
                <mxCell id="28" style="edgeStyle=none;sketch=1;html=1;exitX=1;exitY=0.5;exitDx=0;exitDy=0;entryX=0;entryY=0.5;entryDx=0;entryDy=0;" edge="1" parent="1" source="29" target="30">
                    <mxGeometry relative="1" as="geometry"/>
                </mxCell>
                <mxCell id="51" style="edgeStyle=none;sketch=1;html=1;exitX=1;exitY=0.5;exitDx=0;exitDy=0;entryX=0;entryY=0.5;entryDx=0;entryDy=0;" edge="1" parent="1" source="29" target="50">
                    <mxGeometry relative="1" as="geometry"/>
                </mxCell>
                <mxCell id="60" style="edgeStyle=orthogonalEdgeStyle;sketch=1;html=1;exitX=0.93;exitY=1.008;exitDx=0;exitDy=0;entryX=0.5;entryY=0;entryDx=0;entryDy=0;exitPerimeter=0;rounded=1;dashed=1;" edge="1" parent="1" source="29" target="58">
                    <mxGeometry relative="1" as="geometry"/>
                </mxCell>
                <mxCell id="29" value="" style="shape=image;imageAspect=0;aspect=fixed;verticalLabelPosition=bottom;verticalAlign=top;comic=1;sketch=1;image=https://cdn.xiaolincoding.com/gh/xiaolincoder/ImageHost/%E8%AE%A1%E7%AE%97%E6%9C%BA%E7%BD%91%E7%BB%9C/HTTP/%E6%95%B0%E5%AD%97%E7%AD%BE%E5%90%8D.png;imageBorder=default;" vertex="1" parent="1">
                    <mxGeometry x="320" y="550" width="430" height="218.31" as="geometry"/>
                </mxCell>
                <mxCell id="30" value="特性：&lt;br&gt;①&amp;nbsp;哈希算法来保证消息的完整性&lt;br&gt;②&amp;nbsp;数字签名来保证消息的来源可靠性（能确认消息是由持有私钥的一方发送的）" style="rounded=0;whiteSpace=wrap;html=1;fillColor=#ffe6cc;strokeColor=#d79b00;comic=1;sketch=1;align=left;" vertex="1" parent="1">
                    <mxGeometry x="780" y="570" width="180" height="85" as="geometry"/>
                </mxCell>
                <mxCell id="31" value="一般我们&lt;b&gt;不会&lt;/b&gt;用非对称加密来&lt;b&gt;加密实际的传输内容&lt;/b&gt;，因为非对称加密的计算比较耗费性能的。" style="rounded=0;whiteSpace=wrap;html=1;fillColor=#ffe6cc;strokeColor=#d79b00;comic=1;sketch=1;" vertex="1" parent="1">
                    <mxGeometry x="160" y="280" width="280" height="40" as="geometry"/>
                </mxCell>
                <mxCell id="36" style="edgeStyle=none;sketch=1;html=1;exitX=1;exitY=0.5;exitDx=0;exitDy=0;entryX=0;entryY=0.5;entryDx=0;entryDy=0;" edge="1" parent="1" source="32" target="35">
                    <mxGeometry relative="1" as="geometry"/>
                </mxCell>
                <mxCell id="44" style="edgeStyle=none;sketch=1;html=1;exitX=0.5;exitY=1;exitDx=0;exitDy=0;entryX=0.5;entryY=0;entryDx=0;entryDy=0;" edge="1" parent="1" source="32" target="43">
                    <mxGeometry relative="1" as="geometry"/>
                </mxCell>
                <mxCell id="32" value="① 保证消息完整不被篡改" style="rounded=0;whiteSpace=wrap;html=1;fillColor=#ffe6cc;strokeColor=#d79b00;comic=1;" vertex="1" parent="1">
                    <mxGeometry x="40" y="420" width="100" height="40" as="geometry"/>
                </mxCell>
                <mxCell id="34" style="edgeStyle=none;sketch=1;html=1;exitX=0.5;exitY=1;exitDx=0;exitDy=0;entryX=0.5;entryY=0;entryDx=0;entryDy=0;" edge="1" parent="1" source="33" target="32">
                    <mxGeometry relative="1" as="geometry"/>
                </mxCell>
                <mxCell id="33" value="机制完善流程" style="rounded=0;whiteSpace=wrap;html=1;fillColor=#f8cecc;strokeColor=#b85450;comic=1;" vertex="1" parent="1">
                    <mxGeometry x="40" y="360" width="100" height="30" as="geometry"/>
                </mxCell>
                <mxCell id="38" style="edgeStyle=none;sketch=1;html=1;exitX=1;exitY=0.5;exitDx=0;exitDy=0;entryX=0;entryY=0.5;entryDx=0;entryDy=0;" edge="1" parent="1" source="35" target="37">
                    <mxGeometry relative="1" as="geometry"/>
                </mxCell>
                <mxCell id="35" value="引入摘要算法机制" style="rounded=0;whiteSpace=wrap;html=1;fillColor=#b0e3e6;strokeColor=#0e8088;comic=1;" vertex="1" parent="1">
                    <mxGeometry x="170" y="425" width="110" height="30" as="geometry"/>
                </mxCell>
                <mxCell id="40" style="edgeStyle=none;sketch=1;html=1;exitX=1;exitY=0.5;exitDx=0;exitDy=0;entryX=0;entryY=0.5;entryDx=0;entryDy=0;" edge="1" parent="1" source="37" target="39">
                    <mxGeometry relative="1" as="geometry"/>
                </mxCell>
                <mxCell id="42" style="edgeStyle=none;sketch=1;html=1;exitX=1;exitY=0.5;exitDx=0;exitDy=0;entryX=0;entryY=0.5;entryDx=0;entryDy=0;" edge="1" parent="1" source="37" target="41">
                    <mxGeometry relative="1" as="geometry"/>
                </mxCell>
                <mxCell id="37" value="" style="shape=image;imageAspect=0;aspect=fixed;verticalLabelPosition=bottom;verticalAlign=top;comic=1;sketch=1;image=https://cdn.xiaolincoding.com/gh/xiaolincoder/ImageHost/%E8%AE%A1%E7%AE%97%E6%9C%BA%E7%BD%91%E7%BB%9C/HTTP/%E6%91%98%E8%A6%81%E7%AE%97%E6%B3%95.png;imageBorder=default;" vertex="1" parent="1">
                    <mxGeometry x="320" y="357.81" width="330" height="164.37" as="geometry"/>
                </mxCell>
                <mxCell id="39" value="特性：这样经过校验即可知道信息是否被篡改" style="rounded=0;whiteSpace=wrap;html=1;fillColor=#ffe6cc;strokeColor=#d79b00;comic=1;sketch=1;align=left;" vertex="1" parent="1">
                    <mxGeometry x="670" y="390" width="180" height="45" as="geometry"/>
                </mxCell>
                <mxCell id="41" value="问题：攻击者可以&lt;b&gt;将&amp;lt;内容+哈希值&amp;gt;一并替换掉&lt;/b&gt;，这样就无法被发现" style="rounded=0;whiteSpace=wrap;html=1;fillColor=#f8cecc;strokeColor=#b85450;comic=1;sketch=1;align=left;" vertex="1" parent="1">
                    <mxGeometry x="670" y="450" width="220" height="45" as="geometry"/>
                </mxCell>
                <mxCell id="46" style="edgeStyle=none;sketch=1;html=1;exitX=1;exitY=0.5;exitDx=0;exitDy=0;entryX=0;entryY=0.5;entryDx=0;entryDy=0;" edge="1" parent="1" source="43" target="45">
                    <mxGeometry relative="1" as="geometry"/>
                </mxCell>
                <mxCell id="53" style="edgeStyle=none;sketch=1;html=1;exitX=0.5;exitY=1;exitDx=0;exitDy=0;entryX=0.5;entryY=0;entryDx=0;entryDy=0;" edge="1" parent="1" source="43" target="52">
                    <mxGeometry relative="1" as="geometry"/>
                </mxCell>
                <mxCell id="43" value="② 保证消息来源可靠" style="rounded=0;whiteSpace=wrap;html=1;fillColor=#ffe6cc;strokeColor=#d79b00;comic=1;" vertex="1" parent="1">
                    <mxGeometry x="40" y="640" width="100" height="40" as="geometry"/>
                </mxCell>
                <mxCell id="48" style="edgeStyle=none;sketch=1;html=1;exitX=0.5;exitY=1;exitDx=0;exitDy=0;entryX=0.5;entryY=0;entryDx=0;entryDy=0;" edge="1" parent="1" source="45" target="47">
                    <mxGeometry relative="1" as="geometry"/>
                </mxCell>
                <mxCell id="49" style="edgeStyle=none;sketch=1;html=1;exitX=1;exitY=0.5;exitDx=0;exitDy=0;entryX=0;entryY=0.5;entryDx=0;entryDy=0;" edge="1" parent="1" source="45" target="29">
                    <mxGeometry relative="1" as="geometry"/>
                </mxCell>
                <mxCell id="45" value="引入非对称加密" style="rounded=0;whiteSpace=wrap;html=1;fillColor=#b0e3e6;strokeColor=#0e8088;comic=1;" vertex="1" parent="1">
                    <mxGeometry x="170" y="645" width="110" height="30" as="geometry"/>
                </mxCell>
                <mxCell id="47" value="秘钥加密 公钥解密" style="rounded=0;whiteSpace=wrap;html=1;fillColor=#dae8fc;strokeColor=#6c8ebf;comic=1;" vertex="1" parent="1">
                    <mxGeometry x="170" y="700" width="110" height="30" as="geometry"/>
                </mxCell>
                <mxCell id="50" value="问题：&lt;br&gt;&lt;b&gt;还缺少身份验证的环节&lt;/b&gt;，例如无法知道这个公钥的主人是服务器还是攻击者中间人。&lt;br&gt;攻击者可以伪造一对公私钥进行交互&lt;br&gt;要点：&lt;br&gt;如何&lt;b&gt;保证&lt;/b&gt;该公钥是希望请求的&lt;b&gt;服务器的公钥&lt;/b&gt;而不是被替换的公钥？" style="rounded=0;whiteSpace=wrap;html=1;fillColor=#f8cecc;strokeColor=#b85450;comic=1;sketch=1;align=left;" vertex="1" parent="1">
                    <mxGeometry x="780" y="670" width="240" height="108" as="geometry"/>
                </mxCell>
                <mxCell id="55" style="edgeStyle=none;sketch=1;html=1;exitX=1;exitY=0.5;exitDx=0;exitDy=0;entryX=0;entryY=0.5;entryDx=0;entryDy=0;" edge="1" parent="1" source="52" target="54">
                    <mxGeometry relative="1" as="geometry"/>
                </mxCell>
                <mxCell id="52" value="③ 保证消息来源正确" style="rounded=0;whiteSpace=wrap;html=1;fillColor=#ffe6cc;strokeColor=#d79b00;comic=1;" vertex="1" parent="1">
                    <mxGeometry x="40" y="889.5" width="100" height="40" as="geometry"/>
                </mxCell>
                <mxCell id="57" style="edgeStyle=none;sketch=1;html=1;exitX=1;exitY=0.5;exitDx=0;exitDy=0;entryX=0;entryY=0.5;entryDx=0;entryDy=0;" edge="1" parent="1" source="54" target="56">
                    <mxGeometry relative="1" as="geometry"/>
                </mxCell>
                <mxCell id="54" value="引入第三方认证机构" style="rounded=0;whiteSpace=wrap;html=1;fillColor=#b0e3e6;strokeColor=#0e8088;comic=1;" vertex="1" parent="1">
                    <mxGeometry x="170" y="894.5" width="120" height="30" as="geometry"/>
                </mxCell>
                <mxCell id="59" style="edgeStyle=none;sketch=1;html=1;exitX=1;exitY=0.5;exitDx=0;exitDy=0;entryX=0;entryY=0.5;entryDx=0;entryDy=0;" edge="1" parent="1" source="56" target="58">
                    <mxGeometry relative="1" as="geometry"/>
                </mxCell>
                <mxCell id="56" value="" style="shape=image;imageAspect=0;aspect=fixed;verticalLabelPosition=bottom;verticalAlign=top;comic=1;sketch=1;image=https://cdn.xiaolincoding.com/gh/xiaolincoder/ImageHost/%E8%AE%A1%E7%AE%97%E6%9C%BA%E7%BD%91%E7%BB%9C/HTTP/22-%E6%95%B0%E5%AD%97%E8%AF%81%E4%B9%A6%E5%B7%A5%E4%BD%9C%E6%B5%81%E7%A8%8B.png;imageBorder=default;" vertex="1" parent="1">
                    <mxGeometry x="320" y="778" width="355.23" height="263" as="geometry"/>
                </mxCell>
                <mxCell id="58" value="这里改进的地方是：相当于将上一步的私钥加密过程由使用服务器的私钥&lt;b&gt;改成了使用CA的私钥&lt;/b&gt;，进而保证了无法被冒充" style="rounded=0;whiteSpace=wrap;html=1;fillColor=#ffe6cc;strokeColor=#d79b00;comic=1;sketch=1;align=left;" vertex="1" parent="1">
                    <mxGeometry x="720" y="873.5" width="180" height="72" as="geometry"/>
                </mxCell>
                <mxCell id="61" value="HTTPS的交互过程" style="rounded=0;whiteSpace=wrap;html=1;fillColor=#f8cecc;strokeColor=#b85450;comic=1;" vertex="1" parent="1">
                    <mxGeometry x="356" y="1114" width="116" height="36" as="geometry"/>
                </mxCell>
                <mxCell id="62" value="" style="shape=image;imageAspect=0;aspect=fixed;verticalLabelPosition=bottom;verticalAlign=top;comic=1;sketch=1;image=https://codereaper-image-bed.oss-cn-shenzhen.aliyuncs.com/img/image-20220823151051824.png;imageBorder=default;" vertex="1" parent="1">
                    <mxGeometry x="85" y="1169" width="656.75" height="1194.09" as="geometry"/>
                </mxCell>
                <mxCell id="63" value="&lt;font color=&quot;#6262fc&quot;&gt;&lt;span style=&quot;font-size: 10px&quot;&gt;先进行TCP三次握手建立连接&lt;br&gt;&lt;/span&gt;&lt;/font&gt;" style="rounded=0;whiteSpace=wrap;html=1;fillColor=none;strokeColor=none;comic=1;align=left;sketch=1;" vertex="1" parent="1">
                    <mxGeometry x="540" y="1270" width="140" height="20" as="geometry"/>
                </mxCell>
                <mxCell id="64" value="&lt;font color=&quot;#6262fc&quot;&gt;&lt;span style=&quot;font-size: 10px&quot;&gt;发送内容：&lt;br&gt;① 随机数C&lt;br&gt;② TLS版本号&lt;br&gt;③ 支持的密码套件&lt;br&gt;&lt;/span&gt;&lt;/font&gt;" style="rounded=0;whiteSpace=wrap;html=1;fillColor=none;strokeColor=none;comic=1;align=left;sketch=1;" vertex="1" parent="1">
                    <mxGeometry x="240" y="1380" width="90" height="60" as="geometry"/>
                </mxCell>
                <mxCell id="65" value="&lt;font color=&quot;#6262fc&quot;&gt;&lt;span style=&quot;font-size: 10px&quot;&gt;回应内容：&lt;br&gt;① 随机数S&lt;br&gt;② TLS版本号&lt;br&gt;③ 选择的密码套件&lt;br&gt;④ 服务器证书&lt;br&gt;&lt;/span&gt;&lt;/font&gt;" style="rounded=0;whiteSpace=wrap;html=1;fillColor=none;strokeColor=none;comic=1;align=left;sketch=1;" vertex="1" parent="1">
                    <mxGeometry x="538" y="1484" width="90" height="80" as="geometry"/>
                </mxCell>
                <mxCell id="66" value="" style="shape=image;imageAspect=0;aspect=fixed;verticalLabelPosition=bottom;verticalAlign=top;comic=1;sketch=1;image=https://codereaper-image-bed.oss-cn-shenzhen.aliyuncs.com/img/image-20220823151541353.png;imageBorder=default;" vertex="1" parent="1">
                    <mxGeometry x="-460" y="1524.46" width="530" height="293.54" as="geometry"/>
                </mxCell>
                <mxCell id="68" style="rounded=1;sketch=1;html=1;exitX=0.5;exitY=1;exitDx=0;exitDy=0;entryX=0.5;entryY=0;entryDx=0;entryDy=0;" edge="1" parent="1" source="67" target="66">
                    <mxGeometry relative="1" as="geometry"/>
                </mxCell>
                <mxCell id="67" value="数字证书的签发和校验" style="rounded=0;whiteSpace=wrap;html=1;fillColor=#ffe6cc;strokeColor=#d79b00;comic=1;" vertex="1" parent="1">
                    <mxGeometry x="-261.5" y="1470" width="133" height="31" as="geometry"/>
                </mxCell>
                <mxCell id="70" style="edgeStyle=none;rounded=1;sketch=1;html=1;exitX=1;exitY=0.5;exitDx=0;exitDy=0;entryX=1;entryY=0.5;entryDx=0;entryDy=0;dashed=1;" edge="1" parent="1" target="66">
                    <mxGeometry relative="1" as="geometry">
                        <mxPoint x="240" y="1559.9999999999995" as="sourcePoint"/>
                        <mxPoint x="107.5" y="1706.77" as="targetPoint"/>
                    </mxGeometry>
                </mxCell>
                <mxCell id="71" value="&lt;font color=&quot;#6262fc&quot;&gt;&lt;span style=&quot;font-size: 10px&quot;&gt;1) 获取随机数P&lt;br&gt;2) 使用公钥加密P并发送到服务器&lt;br&gt;&lt;/span&gt;&lt;/font&gt;" style="rounded=0;whiteSpace=wrap;html=1;fillColor=none;strokeColor=none;comic=1;align=left;sketch=1;" vertex="1" parent="1">
                    <mxGeometry x="170" y="1680" width="90" height="50" as="geometry"/>
                </mxCell>
                <mxCell id="73" value="&lt;font color=&quot;#6262fc&quot;&gt;&lt;span style=&quot;font-size: 10px&quot;&gt;&lt;b&gt;协商使用会话秘钥进行对称加密&lt;/b&gt;&lt;br&gt;&lt;/span&gt;&lt;/font&gt;" style="rounded=0;whiteSpace=wrap;html=1;fillColor=none;strokeColor=none;comic=1;align=left;sketch=1;" vertex="1" parent="1">
                    <mxGeometry x="550" y="2000" width="90" height="40" as="geometry"/>
                </mxCell>
                <mxCell id="74" value="&lt;font color=&quot;#6262fc&quot;&gt;&lt;span style=&quot;font-size: 10px&quot;&gt;使用会话秘钥进行&lt;b&gt;对称加密&lt;/b&gt;&lt;br&gt;&lt;/span&gt;&lt;/font&gt;" style="rounded=0;whiteSpace=wrap;html=1;fillColor=none;strokeColor=none;comic=1;align=left;sketch=1;" vertex="1" parent="1">
                    <mxGeometry x="550" y="2280" width="90" height="40" as="geometry"/>
                </mxCell>
            </root>
        </mxGraphModel>
    </diagram>
</mxfile>